<?xml version="1.0" standalone="no"?><svg xmlns="http://www.w3.org/2000/svg" viewBox="0 0 1440 320"><path fill="#16FFA6" fill-opacity="1" d="M0,96L34.3,128C68.6,160,137,224,206,240C274.3,256,343,224,411,197.3C480,171,549,149,617,133.3C685.7,117,754,107,823,128C891.4,149,960,203,1029,186.7C1097.1,171,1166,85,1234,90.7C1302.9,96,1371,192,1406,240L1440,288L1440,320L1405.7,320C1371.4,320,1303,320,1234,320C1165.7,320,1097,320,1029,320C960,320,891,320,823,320C754.3,320,686,320,617,320C548.6,320,480,320,411,320C342.9,320,274,320,206,320C137.1,320,69,320,34,320L0,320Z"></path></svg>